<svg width="45" height="45" fill="none" xmlns="http://www.w3.org/2000/svg"><path d="M1 1h43v43H1V1z" fill="#fff" stroke="#fff" stroke-width="2"/><g clip-path="url(#clip0_1_19)"><path d="M19.11 29v-8.176h-2.544V29h2.543zm-1.286-9.27c.82 0 1.477-.683 1.477-1.503 0-.793-.656-1.45-1.477-1.45a1.46 1.46 0 00-1.449 1.45c0 .82.656 1.503 1.45 1.503zM28.598 29h.027v-4.484c0-2.188-.492-3.883-3.063-3.883-1.23 0-2.05.683-2.406 1.312h-.027v-1.12h-2.434V29h2.543v-4.047c0-1.066.192-2.078 1.504-2.078 1.313 0 1.34 1.203 1.34 2.16V29h2.516z" fill="#141414"/></g><defs><clipPath id="clip0_1_19"><path fill="#fff" transform="translate(16 16)" d="M0 0h13v13H0z"/></clipPath></defs></svg>