<svg width="45" height="45" fill="none" xmlns="http://www.w3.org/2000/svg"><path d="M1 1h43v43H1V1z" fill="#fff" stroke="#fff" stroke-width="2"/><g clip-path="url(#clip0_1_15)"><path d="M28.55 19.906a6.082 6.082 0 001.423-1.476 5.384 5.384 0 01-1.641.437 2.805 2.805 0 001.258-1.586 6.06 6.06 0 01-1.805.711 2.872 2.872 0 00-2.105-.902 2.87 2.87 0 00-2.871 2.87c0 .22.027.438.082.657a8.33 8.33 0 01-5.934-3.008c-.246.41-.383.903-.383 1.45 0 .984.492 1.859 1.285 2.378-.465-.027-.93-.136-1.312-.355v.027c0 1.395.984 2.543 2.297 2.817a3.19 3.19 0 01-.739.11c-.19 0-.355-.028-.546-.056a2.857 2.857 0 002.68 1.997 5.773 5.773 0 01-3.555 1.23c-.247 0-.465-.027-.684-.055 1.258.82 2.762 1.285 4.402 1.285 5.278 0 8.149-4.347 8.149-8.148v-.383z" fill="#141414"/></g><defs><clipPath id="clip0_1_15"><path fill="#fff" transform="translate(16 17)" d="M0 0h14v12H0z"/></clipPath></defs></svg>