<svg width="55" height="55" fill="none" xmlns="http://www.w3.org/2000/svg"><path d="M.5.5h54v54H.5V.5z" stroke="#FFCA42"/><g clip-path="url(#clip0_1_420)"><path d="M24.125 35v-9.344h-2.906V35h2.906zm-1.469-10.594c.938 0 1.688-.781 1.688-1.718 0-.907-.75-1.657-1.688-1.657-.906 0-1.656.75-1.656 1.657 0 .937.75 1.718 1.656 1.718zM34.97 35H35v-5.125c0-2.5-.563-4.438-3.5-4.438-1.406 0-2.344.782-2.75 1.5h-.031v-1.28h-2.782V35h2.907v-4.625c0-1.219.218-2.375 1.718-2.375s1.532 1.375 1.532 2.469V35h2.875z" fill="#fff"/></g><defs><clipPath id="clip0_1_420"><path fill="#fff" transform="translate(21 21)" d="M0 0h14v14H0z"/></clipPath></defs></svg>